<mxfile host="Electron" modified="2024-02-01T07:00:53.773Z" agent="Mozilla/5.0 (Windows NT 10.0; Win64; x64) AppleWebKit/537.36 (KHTML, like Gecko) draw.io/22.1.16 Chrome/120.0.6099.109 Electron/28.1.0 Safari/537.36" etag="w4gZVSIyZdf1aixBie-4" version="22.1.16" type="device">
  <diagram id="gFP-7ZzZuncr225zE428" name="第 1 页">
    <mxGraphModel dx="1877" dy="629" grid="1" gridSize="10" guides="1" tooltips="1" connect="1" arrows="1" fold="1" page="1" pageScale="1" pageWidth="827" pageHeight="1169" math="0" shadow="0">
      <root>
        <mxCell id="0" />
        <mxCell id="1" parent="0" />
        <mxCell id="2HJ0uHWdlHcjNEn2teys-1" value="" style="rounded=0;whiteSpace=wrap;html=1;" parent="1" vertex="1">
          <mxGeometry x="-560" y="240" width="720" height="450" as="geometry" />
        </mxCell>
        <mxCell id="2HJ0uHWdlHcjNEn2teys-2" value="Client" style="rounded=0;whiteSpace=wrap;html=1;" parent="1" vertex="1">
          <mxGeometry x="-560" y="160" width="80" height="40" as="geometry" />
        </mxCell>
        <mxCell id="2HJ0uHWdlHcjNEn2teys-3" value="Executor&lt;br&gt;实现类" style="rounded=0;whiteSpace=wrap;html=1;" parent="1" vertex="1">
          <mxGeometry x="-80" y="160" width="80" height="40" as="geometry" />
        </mxCell>
        <mxCell id="2HJ0uHWdlHcjNEn2teys-4" value="SqlSession" style="rounded=0;whiteSpace=wrap;html=1;" parent="1" vertex="1">
          <mxGeometry x="-400" y="160" width="80" height="40" as="geometry" />
        </mxCell>
        <mxCell id="2HJ0uHWdlHcjNEn2teys-5" value="Executor" style="rounded=0;whiteSpace=wrap;html=1;" parent="1" vertex="1">
          <mxGeometry x="-240" y="160" width="80" height="40" as="geometry" />
        </mxCell>
        <mxCell id="2HJ0uHWdlHcjNEn2teys-6" value="" style="endArrow=none;dashed=1;html=1;dashPattern=1 3;strokeWidth=2;" parent="1" source="2HJ0uHWdlHcjNEn2teys-2" edge="1">
          <mxGeometry width="50" height="50" relative="1" as="geometry">
            <mxPoint x="-210" y="290" as="sourcePoint" />
            <mxPoint x="-520" y="760" as="targetPoint" />
          </mxGeometry>
        </mxCell>
        <mxCell id="2HJ0uHWdlHcjNEn2teys-7" value="" style="endArrow=none;dashed=1;html=1;dashPattern=1 3;strokeWidth=2;exitX=0.5;exitY=1;exitDx=0;exitDy=0;" parent="1" source="2HJ0uHWdlHcjNEn2teys-4" edge="1">
          <mxGeometry width="50" height="50" relative="1" as="geometry">
            <mxPoint x="-510" y="210" as="sourcePoint" />
            <mxPoint x="-360" y="760" as="targetPoint" />
          </mxGeometry>
        </mxCell>
        <mxCell id="2HJ0uHWdlHcjNEn2teys-8" value="" style="endArrow=none;dashed=1;html=1;dashPattern=1 3;strokeWidth=2;exitX=0.5;exitY=1;exitDx=0;exitDy=0;" parent="1" source="2HJ0uHWdlHcjNEn2teys-15" edge="1">
          <mxGeometry width="50" height="50" relative="1" as="geometry">
            <mxPoint x="-350" y="210" as="sourcePoint" />
            <mxPoint x="-200" y="760" as="targetPoint" />
          </mxGeometry>
        </mxCell>
        <mxCell id="2HJ0uHWdlHcjNEn2teys-9" value="" style="endArrow=classic;html=1;" parent="1" edge="1">
          <mxGeometry width="50" height="50" relative="1" as="geometry">
            <mxPoint x="-360" y="320" as="sourcePoint" />
            <mxPoint x="-360" y="320" as="targetPoint" />
          </mxGeometry>
        </mxCell>
        <mxCell id="2HJ0uHWdlHcjNEn2teys-10" value="" style="html=1;points=[];perimeter=orthogonalPerimeter;" parent="1" vertex="1">
          <mxGeometry x="-365" y="280" width="10" height="390" as="geometry" />
        </mxCell>
        <mxCell id="2HJ0uHWdlHcjNEn2teys-11" value="select开头的方法" style="html=1;verticalAlign=bottom;endArrow=block;entryX=0;entryY=0;" parent="1" target="2HJ0uHWdlHcjNEn2teys-10" edge="1">
          <mxGeometry relative="1" as="geometry">
            <mxPoint x="-520" y="280" as="sourcePoint" />
            <mxPoint as="offset" />
          </mxGeometry>
        </mxCell>
        <mxCell id="2HJ0uHWdlHcjNEn2teys-12" value="return" style="html=1;verticalAlign=bottom;endArrow=open;dashed=1;endSize=8;exitX=-0.06;exitY=0.994;exitDx=0;exitDy=0;exitPerimeter=0;" parent="1" source="2HJ0uHWdlHcjNEn2teys-10" edge="1">
          <mxGeometry relative="1" as="geometry">
            <mxPoint x="-520" y="668" as="targetPoint" />
          </mxGeometry>
        </mxCell>
        <mxCell id="2HJ0uHWdlHcjNEn2teys-13" value="query(..)" style="html=1;verticalAlign=bottom;endArrow=block;entryX=0;entryY=0;" parent="1" source="2HJ0uHWdlHcjNEn2teys-10" target="2HJ0uHWdlHcjNEn2teys-15" edge="1">
          <mxGeometry x="-0.0328" y="1" relative="1" as="geometry">
            <mxPoint x="-280" y="110" as="sourcePoint" />
            <mxPoint as="offset" />
          </mxGeometry>
        </mxCell>
        <mxCell id="2HJ0uHWdlHcjNEn2teys-14" value="return" style="html=1;verticalAlign=bottom;endArrow=open;dashed=1;endSize=8;exitX=0.2;exitY=0.997;exitDx=0;exitDy=0;exitPerimeter=0;entryX=1;entryY=0.946;entryDx=0;entryDy=0;entryPerimeter=0;" parent="1" source="2HJ0uHWdlHcjNEn2teys-15" target="2HJ0uHWdlHcjNEn2teys-10" edge="1">
          <mxGeometry relative="1" as="geometry">
            <mxPoint x="-320" y="466" as="targetPoint" />
          </mxGeometry>
        </mxCell>
        <mxCell id="2HJ0uHWdlHcjNEn2teys-15" value="" style="html=1;points=[];perimeter=orthogonalPerimeter;" parent="1" vertex="1">
          <mxGeometry x="-205" y="330" width="10" height="320" as="geometry" />
        </mxCell>
        <mxCell id="2HJ0uHWdlHcjNEn2teys-16" value="" style="endArrow=none;dashed=1;html=1;dashPattern=1 3;strokeWidth=2;exitX=0.5;exitY=1;exitDx=0;exitDy=0;" parent="1" source="2HJ0uHWdlHcjNEn2teys-5" target="2HJ0uHWdlHcjNEn2teys-15" edge="1">
          <mxGeometry width="50" height="50" relative="1" as="geometry">
            <mxPoint x="-200" y="200" as="sourcePoint" />
            <mxPoint x="-200" y="680" as="targetPoint" />
          </mxGeometry>
        </mxCell>
        <mxCell id="2HJ0uHWdlHcjNEn2teys-24" value="" style="endArrow=none;dashed=1;html=1;dashPattern=1 3;strokeWidth=2;entryX=0.5;entryY=1;entryDx=0;entryDy=0;" parent="1" source="2HJ0uHWdlHcjNEn2teys-35" target="2HJ0uHWdlHcjNEn2teys-3" edge="1">
          <mxGeometry width="50" height="50" relative="1" as="geometry">
            <mxPoint y="760" as="sourcePoint" />
            <mxPoint x="-280" y="440" as="targetPoint" />
          </mxGeometry>
        </mxCell>
        <mxCell id="2HJ0uHWdlHcjNEn2teys-34" value="通过CURD标签id获取对应的MappedStatement" style="text;html=1;strokeColor=none;fillColor=none;align=center;verticalAlign=middle;whiteSpace=wrap;rounded=0;" parent="1" vertex="1">
          <mxGeometry x="-355" y="280" width="145" height="20" as="geometry" />
        </mxCell>
        <mxCell id="2HJ0uHWdlHcjNEn2teys-36" value="doQuery(..)" style="html=1;verticalAlign=bottom;endArrow=block;entryX=0;entryY=0;" parent="1" source="2HJ0uHWdlHcjNEn2teys-15" target="2HJ0uHWdlHcjNEn2teys-35" edge="1">
          <mxGeometry relative="1" as="geometry">
            <mxPoint x="-109.99999999999996" y="384.48" as="sourcePoint" />
          </mxGeometry>
        </mxCell>
        <mxCell id="2HJ0uHWdlHcjNEn2teys-37" value="return" style="html=1;verticalAlign=bottom;endArrow=open;dashed=1;endSize=8;exitX=0;exitY=0.95;entryX=1;entryY=0.899;entryDx=0;entryDy=0;entryPerimeter=0;" parent="1" source="2HJ0uHWdlHcjNEn2teys-35" target="2HJ0uHWdlHcjNEn2teys-15" edge="1">
          <mxGeometry relative="1" as="geometry">
            <mxPoint x="-74.2" y="456" as="targetPoint" />
          </mxGeometry>
        </mxCell>
        <mxCell id="2HJ0uHWdlHcjNEn2teys-35" value="" style="html=1;points=[];perimeter=orthogonalPerimeter;" parent="1" vertex="1">
          <mxGeometry x="-45" y="370" width="10" height="260" as="geometry" />
        </mxCell>
        <mxCell id="2HJ0uHWdlHcjNEn2teys-38" value="" style="endArrow=none;dashed=1;html=1;dashPattern=1 3;strokeWidth=2;entryX=0.5;entryY=1;entryDx=0;entryDy=0;" parent="1" target="2HJ0uHWdlHcjNEn2teys-35" edge="1">
          <mxGeometry width="50" height="50" relative="1" as="geometry">
            <mxPoint x="-40" y="760" as="sourcePoint" />
            <mxPoint y="200" as="targetPoint" />
          </mxGeometry>
        </mxCell>
        <mxCell id="2HJ0uHWdlHcjNEn2teys-39" value="执行一次缓存、二次缓存逻辑" style="text;html=1;strokeColor=none;fillColor=none;align=center;verticalAlign=middle;whiteSpace=wrap;rounded=0;" parent="1" vertex="1">
          <mxGeometry x="-195" y="330" width="165" height="20" as="geometry" />
        </mxCell>
        <mxCell id="2HJ0uHWdlHcjNEn2teys-41" value="StatementHandler" style="rounded=0;whiteSpace=wrap;html=1;" parent="1" vertex="1">
          <mxGeometry x="70" y="160" width="100" height="40" as="geometry" />
        </mxCell>
        <mxCell id="2HJ0uHWdlHcjNEn2teys-44" value="创建StatementHandler，创建PrepareStatement" style="text;html=1;strokeColor=none;fillColor=none;align=center;verticalAlign=middle;whiteSpace=wrap;rounded=0;" parent="1" vertex="1">
          <mxGeometry x="-35" y="370" width="145" height="20" as="geometry" />
        </mxCell>
        <mxCell id="2HJ0uHWdlHcjNEn2teys-51" value="" style="endArrow=none;dashed=1;html=1;dashPattern=1 3;strokeWidth=2;entryX=0.5;entryY=1;entryDx=0;entryDy=0;" parent="1" source="2HJ0uHWdlHcjNEn2teys-52" target="2HJ0uHWdlHcjNEn2teys-41" edge="1">
          <mxGeometry width="50" height="50" relative="1" as="geometry">
            <mxPoint x="120" y="760" as="sourcePoint" />
            <mxPoint x="-170" y="470" as="targetPoint" />
            <Array as="points" />
          </mxGeometry>
        </mxCell>
        <mxCell id="2HJ0uHWdlHcjNEn2teys-52" value="" style="html=1;points=[];perimeter=orthogonalPerimeter;" parent="1" vertex="1">
          <mxGeometry x="115" y="410" width="10" height="120" as="geometry" />
        </mxCell>
        <mxCell id="2HJ0uHWdlHcjNEn2teys-53" value="" style="endArrow=none;dashed=1;html=1;dashPattern=1 3;strokeWidth=2;entryX=0.5;entryY=1;entryDx=0;entryDy=0;" parent="1" target="2HJ0uHWdlHcjNEn2teys-52" edge="1">
          <mxGeometry width="50" height="50" relative="1" as="geometry">
            <mxPoint x="120" y="760" as="sourcePoint" />
            <mxPoint x="120" y="200" as="targetPoint" />
            <Array as="points">
              <mxPoint x="120" y="490" />
            </Array>
          </mxGeometry>
        </mxCell>
        <mxCell id="2HJ0uHWdlHcjNEn2teys-54" value="query(..)" style="html=1;verticalAlign=bottom;endArrow=block;entryX=0.08;entryY=0.022;entryDx=0;entryDy=0;entryPerimeter=0;" parent="1" source="2HJ0uHWdlHcjNEn2teys-35" target="2HJ0uHWdlHcjNEn2teys-52" edge="1">
          <mxGeometry width="80" relative="1" as="geometry">
            <mxPoint x="-120" y="500" as="sourcePoint" />
            <mxPoint x="117" y="412" as="targetPoint" />
          </mxGeometry>
        </mxCell>
        <mxCell id="2HJ0uHWdlHcjNEn2teys-55" value="return" style="html=1;verticalAlign=bottom;endArrow=open;dashed=1;endSize=8;exitX=0;exitY=1.01;exitDx=0;exitDy=0;exitPerimeter=0;" parent="1" source="2HJ0uHWdlHcjNEn2teys-52" target="2HJ0uHWdlHcjNEn2teys-35" edge="1">
          <mxGeometry relative="1" as="geometry">
            <mxPoint x="-40" y="400" as="sourcePoint" />
            <mxPoint x="-120" y="400" as="targetPoint" />
          </mxGeometry>
        </mxCell>
        <mxCell id="2HJ0uHWdlHcjNEn2teys-56" value="Java程序访问数据库的标准接口" style="ellipse;shape=cloud;whiteSpace=wrap;html=1;" parent="1" vertex="1">
          <mxGeometry x="240" y="400" width="120" height="80" as="geometry" />
        </mxCell>
        <mxCell id="2HJ0uHWdlHcjNEn2teys-60" value="execute(..)" style="html=1;verticalAlign=bottom;endArrow=block;entryX=0.07;entryY=0.4;entryDx=0;entryDy=0;entryPerimeter=0;" parent="1" source="2HJ0uHWdlHcjNEn2teys-52" target="2HJ0uHWdlHcjNEn2teys-56" edge="1">
          <mxGeometry width="80" relative="1" as="geometry">
            <mxPoint x="-120" y="400" as="sourcePoint" />
            <mxPoint x="-40" y="400" as="targetPoint" />
          </mxGeometry>
        </mxCell>
        <mxCell id="2HJ0uHWdlHcjNEn2teys-61" value="return" style="html=1;verticalAlign=bottom;endArrow=open;dashed=1;endSize=8;exitX=0.13;exitY=0.77;exitDx=0;exitDy=0;exitPerimeter=0;" parent="1" source="2HJ0uHWdlHcjNEn2teys-56" target="2HJ0uHWdlHcjNEn2teys-52" edge="1">
          <mxGeometry relative="1" as="geometry">
            <mxPoint x="-40" y="390" as="sourcePoint" />
            <mxPoint x="-120" y="390" as="targetPoint" />
          </mxGeometry>
        </mxCell>
        <mxCell id="2HJ0uHWdlHcjNEn2teys-62" value="ResultHandler处理返回值" style="text;html=1;align=center;verticalAlign=middle;resizable=0;points=[];autosize=1;" parent="1" vertex="1">
          <mxGeometry x="125" y="490" width="150" height="20" as="geometry" />
        </mxCell>
        <mxCell id="DLgJn06kD9ayTCuKzS7D-1" value="nxt" style="text;html=1;align=center;verticalAlign=middle;resizable=0;points=[];autosize=1;strokeColor=none;fillColor=none;fontColor=#FFFFFF;" vertex="1" parent="1">
          <mxGeometry x="-590" y="130" width="40" height="30" as="geometry" />
        </mxCell>
        <mxCell id="DLgJn06kD9ayTCuKzS7D-2" value="nxt" style="text;html=1;align=center;verticalAlign=middle;resizable=0;points=[];autosize=1;strokeColor=none;fillColor=none;fontColor=#FFFFFF;" vertex="1" parent="1">
          <mxGeometry x="320" y="740" width="40" height="30" as="geometry" />
        </mxCell>
      </root>
    </mxGraphModel>
  </diagram>
</mxfile>
